<svg xmlns="http://www.w3.org/2000/svg" width="24.614" height="24.614" viewBox="0 0 24.614 24.614">
  <path id="icons8-facebook" d="M26.376,4H6.238A2.237,2.237,0,0,0,4,6.238V26.376a2.237,2.237,0,0,0,2.238,2.238H17.426V18.545H14.069V15.188h3.356v-1.8c0-3.412,1.663-4.91,4.5-4.91a16.421,16.421,0,0,1,2.417.147v3.21H22.407c-1.2,0-1.625.635-1.625,1.922v1.434h3.529l-.479,3.356h-3.05V28.614h5.594a2.237,2.237,0,0,0,2.238-2.238V6.238A2.238,2.238,0,0,0,26.376,4Z" transform="translate(-4 -4)" fill="#fff"/>
</svg>
