<svg xmlns="http://www.w3.org/2000/svg" width="26.906" height="26.24" viewBox="0 0 26.906 26.24">
  <path id="iconmonstr-github-5" d="M19.453,6A13.453,13.453,0,0,0,15.2,32.217c.673.126.888-.291.888-.648v-2.5c-3.742.814-4.522-1.585-4.522-1.585a3.559,3.559,0,0,0-1.493-1.969c-1.22-.836.092-.818.092-.818a2.824,2.824,0,0,1,2.063,1.388A2.865,2.865,0,0,0,16.143,27.2,2.86,2.86,0,0,1,17,25.4c-2.989-.341-6.128-1.5-6.128-6.648a5.2,5.2,0,0,1,1.386-3.61,4.85,4.85,0,0,1,.13-3.565s1.13-.361,3.7,1.379a12.755,12.755,0,0,1,6.738,0c2.569-1.74,3.7-1.379,3.7-1.379a4.846,4.846,0,0,1,.135,3.561,5.189,5.189,0,0,1,1.383,3.61c0,5.168-3.148,6.3-6.143,6.637a3.208,3.208,0,0,1,.924,2.491v3.691c0,.359.215.778.9.646A13.453,13.453,0,0,0,19.453,6Z" transform="translate(-6 -6)" fill="#fff"/>
</svg>
