<svg xmlns="http://www.w3.org/2000/svg" width="26.805" height="26.805" viewBox="0 0 26.805 26.805">
  <path id="icons8-instagram" d="M161.947,154.5a7.454,7.454,0,0,0-7.446,7.446V173.86a7.454,7.454,0,0,0,7.446,7.446H173.86a7.454,7.454,0,0,0,7.446-7.446V161.947a7.454,7.454,0,0,0-7.446-7.446Zm0,2.978H173.86a4.473,4.473,0,0,1,4.468,4.468V173.86a4.473,4.473,0,0,1-4.468,4.468H161.947a4.473,4.473,0,0,1-4.468-4.468V161.947A4.473,4.473,0,0,1,161.947,157.479Zm13.4,1.489a1.489,1.489,0,1,0,1.489,1.489A1.489,1.489,0,0,0,175.349,158.968Zm-7.446,1.489a7.446,7.446,0,1,0,7.446,7.446A7.454,7.454,0,0,0,167.9,160.458Zm0,2.978a4.468,4.468,0,1,1-4.468,4.468A4.473,4.473,0,0,1,167.9,163.436Z" transform="translate(-154.501 -154.501)" fill="#fff"/>
</svg>
