<svg xmlns="http://www.w3.org/2000/svg" width="1834.308" height="687.873" viewBox="0 0 1834.308 687.873"><rect width="1834.296" height="687.861" transform="translate(0 0)" fill="rgba(245,245,245,0)"/><g transform="translate(229.287 0)"><path d="M57.325,0,114.65,57.325,57.325,114.65,0,57.325Z" fill="#482676"/></g><rect width="114.643" height="114.643" transform="translate(458.574 0)" fill="#502b84"/><path d="M281.251,0a57.325,57.325,0,0,1,57.325,57.325L281.251,0a57.325,57.325,0,0,0,57.325,57.325" transform="translate(234.648 0)" fill="#462574"/><path d="M437.5,0a114.65,114.65,0,0,1,114.65,114.65L437.5,0a114.65,114.65,0,0,0,114.65,114.65" transform="translate(365.008 0)" fill="#e5dfed"/><path d="M687.5,0a114.65,114.65,0,0,1,114.65,114.65L687.5,0a114.649,114.649,0,0,0,114.65,114.65" transform="translate(573.583 0)" fill="#a38fbf"/><path d="M750,114.65A114.649,114.649,0,0,1,864.648,0L750,114.65A114.65,114.65,0,0,0,864.648,0" transform="translate(625.724 0)" fill="#41236b"/><g transform="translate(802.51 114.65)"><path d="M57.325,0,114.65,57.325,57.325,114.65,0,57.325Z" fill="#3d2064"/></g><g transform="translate(1375.722 114.65)"><path d="M57.325,0,114.65,57.325,57.325,114.65,0,57.325Z" fill="#512c84"/></g><path d="M812.5,177.153A114.649,114.649,0,0,1,927.151,62.5L812.5,177.153A114.649,114.649,0,0,0,927.151,62.5" transform="translate(677.87 52.146)" fill="#5f3b8b"/><g transform="translate(1605.009 114.65)"><path d="M57.325,0,114.65,57.325,57.325,114.65,0,57.325Z" fill="#4d297e"/></g><path d="M937.5,62.5a114.649,114.649,0,0,1,114.649,114.65L937.5,62.5a114.649,114.649,0,0,0,114.649,114.65" transform="translate(782.157 52.146)" fill="#633f8d"/><g transform="translate(0 229.287)"><path d="M57.325,0,114.65,57.325,57.325,114.65,0,57.325Z" fill="#43246f"/></g><g transform="translate(1031.797 229.287)"><path d="M57.325,0,114.65,57.325,57.325,114.65,0,57.325Z" fill="#623e8d"/></g><path d="M187.5,302.152A114.65,114.65,0,0,1,302.152,187.5L187.5,302.152A114.65,114.65,0,0,0,302.152,187.5" transform="translate(156.434 156.434)" fill="#583488"/><rect width="114.643" height="114.643" transform="translate(687.861 343.93)" fill="#502b84"/><path d="M375,276.073a57.325,57.325,0,0,1,57.325-57.325L375,276.073a57.325,57.325,0,0,0,57.325-57.325" transform="translate(312.862 182.501)" fill="#583388"/><g transform="translate(745.186 401.249)"><path d="M28.662,0,57.325,28.662,28.662,57.325,0,28.662Z" fill="#684895"/></g><path d="M437.5,187.5a114.65,114.65,0,0,1,114.65,114.65L437.5,187.5a114.65,114.65,0,0,0,114.65,114.65" transform="translate(365.008 156.434)" fill="#402269"/><g transform="translate(1031.797 343.937)"><path d="M57.325,0,114.65,57.325,57.325,114.65,0,57.325Z" fill="#58358a"/></g><rect width="114.643" height="114.643" transform="translate(1146.435 343.93)" fill="#502b84"/><path d="M656.25,187.5a57.325,57.325,0,0,1,57.325,57.325L656.25,187.5a57.325,57.325,0,0,0,57.325,57.325" transform="translate(547.51 156.434)" fill="#4c297d"/><g transform="translate(1146.435 401.249)"><path d="M28.662,0,57.325,28.662,28.662,57.325,0,28.662Z" fill="#a18dbd"/></g><path d="M750,302.152A114.649,114.649,0,0,1,864.648,187.5L750,302.152A114.65,114.65,0,0,0,864.648,187.5" transform="translate(625.724 156.434)" fill="#532e85"/><rect width="114.643" height="114.643" transform="translate(1605.009 343.93)" fill="#502b84"/><path d="M875,187.5a57.325,57.325,0,0,1,57.325,57.325L875,187.5a57.325,57.325,0,0,0,57.325,57.325" transform="translate(730.011 156.434)" fill="#633f8d"/><path d="M906.249,187.5a57.325,57.325,0,0,1,57.325,57.325L906.249,187.5a57.325,57.325,0,0,0,57.325,57.325" transform="translate(756.084 156.434)" fill="#4e2a81"/><rect width="114.643" height="114.643" transform="translate(229.287 458.574)" fill="#502b84"/><path d="M125,250a57.325,57.325,0,0,1,57.325,57.325L125,250a57.325,57.325,0,0,0,57.325,57.325" transform="translate(104.287 208.575)" fill="#a895c2"/><g transform="translate(286.612 458.574)"><path d="M28.662,0,57.325,28.662,28.662,57.325,0,28.662Z" fill="#512d85"/></g><g transform="translate(458.574 458.574)"><path d="M57.325,0,114.65,57.325,57.325,114.65,0,57.325Z" fill="#5c388a"/></g><rect width="114.643" height="114.643" transform="translate(573.217 458.574)" fill="#502b84"/><path d="M312.5,338.576a57.325,57.325,0,0,1,57.325-57.325L312.5,338.576a57.325,57.325,0,0,0,57.325-57.325" transform="translate(260.721 234.648)" fill="#482676"/><path d="M343.747,338.576a57.325,57.325,0,0,1,57.325-57.325l-57.325,57.325a57.325,57.325,0,0,0,57.325-57.325" transform="translate(286.789 234.648)" fill="#542f86"/><rect width="114.643" height="114.643" transform="translate(802.504 458.574)" fill="#502b84"/><path d="M468.747,250a57.325,57.325,0,0,1,57.325,57.325L468.747,250a57.325,57.325,0,0,0,57.325,57.325" transform="translate(391.076 208.575)" fill="#b4a4cb"/><g transform="translate(802.51 515.899)"><path d="M28.662,0,57.325,28.662,28.662,57.325,0,28.662Z" fill="#442470"/></g><g transform="translate(917.148 458.574)"><path d="M57.325,0,114.65,57.325,57.325,114.65,0,57.325Z" fill="#583388"/></g><rect width="114.643" height="114.643" transform="translate(1146.435 458.574)" fill="#502b84"/><g transform="translate(1203.76 458.574)"><path d="M28.662,0,57.325,28.662,28.662,57.325,0,28.662Z" fill="#dad1e5"/></g><path d="M656.25,338.576a57.325,57.325,0,0,1,57.325-57.325L656.25,338.576a57.325,57.325,0,0,0,57.325-57.325" transform="translate(547.51 234.648)" fill="#482777"/><rect width="114.643" height="114.643" transform="translate(1375.722 458.574)" fill="#502b84"/><path d="M750,250a57.325,57.325,0,0,1,57.325,57.325L750,250a57.325,57.325,0,0,0,57.325,57.325" transform="translate(625.724 208.575)" fill="#452471"/><g transform="translate(1375.722 515.899)"><path d="M28.662,0,57.325,28.662,28.662,57.325,0,28.662Z" fill="#4e2a81"/></g><rect width="114.643" height="114.643" transform="translate(1490.371 458.574)" fill="#502b84"/><rect width="114.643" height="114.643" transform="translate(458.574 573.217)" fill="#502b84"/><path d="M250,401.072a57.325,57.325,0,0,1,57.325-57.325L250,401.072a57.325,57.325,0,0,0,57.325-57.325" transform="translate(208.575 286.789)" fill="#5e3a8b"/><path d="M281.251,401.072a57.325,57.325,0,0,1,57.325-57.325l-57.325,57.325a57.325,57.325,0,0,0,57.325-57.325" transform="translate(234.648 286.789)" fill="#452571"/><g transform="translate(573.224 573.224)"><path d="M57.325,0,114.65,57.325,57.325,114.65,0,57.325Z" fill="#a08bbc"/></g><g transform="translate(917.148 573.224)"><path d="M57.325,0,114.65,57.325,57.325,114.65,0,57.325Z" fill="#a693c1"/></g><rect width="114.643" height="114.643" transform="translate(1261.084 573.217)" fill="#502b84"/><g transform="translate(1261.084 630.536)"><path d="M28.662,0,57.325,28.662,28.662,57.325,0,28.662Z" fill="#ad9bc6"/></g><path d="M718.747,401.072a57.325,57.325,0,0,1,57.325-57.325l-57.325,57.325a57.325,57.325,0,0,0,57.325-57.325" transform="translate(599.651 286.789)" fill="#ede9f3"/><path d="M750,427.152A114.649,114.649,0,0,1,864.648,312.5L750,427.152A114.649,114.649,0,0,0,864.648,312.5" transform="translate(625.724 260.721)" fill="#8d75af"/><g transform="translate(1605.009 573.224)"><path d="M57.325,0,114.65,57.325,57.325,114.65,0,57.325Z" fill="#5f3a8b"/></g><rect width="114.643" height="114.643" transform="translate(1719.658 573.217)" fill="#502b84"/><path d="M937.5,369.827A57.325,57.325,0,0,1,994.826,312.5L937.5,369.827A57.325,57.325,0,0,0,994.826,312.5" transform="translate(782.157 260.721)" fill="#563287"/><path d="M968.746,312.5a57.325,57.325,0,0,1,57.325,57.325L968.746,312.5a57.325,57.325,0,0,0,57.324,57.325" transform="translate(808.225 260.721)" fill="#9179b2"/><path d="M937.5,401.072a57.325,57.325,0,0,1,57.325-57.325L937.5,401.072a57.325,57.325,0,0,0,57.325-57.325" transform="translate(782.157 286.789)" fill="#886fac"/></svg>